<?xml version="1.0" encoding="UTF-8"?>
<svg xmlns="http://www.w3.org/2000/svg" xmlns:xlink="http://www.w3.org/1999/xlink" width="120px" height="120px" viewBox="0 0 120 120" version="1.1">
<defs>
<clipPath id="clip1">
  <path d="M 13.464844 16.800781 L 56.640625 16.800781 L 56.640625 72.480469 L 13.464844 72.480469 Z M 13.464844 16.800781 "/>
</clipPath>
<clipPath id="clip2">
  <path d="M 23.519531 4.007812 L 56.640625 4.007812 L 56.640625 20 L 23.519531 20 Z M 23.519531 4.007812 "/>
</clipPath>
<clipPath id="clip3">
  <path d="M 60 4.007812 L 93.121094 4.007812 L 93.121094 20 L 60 20 Z M 60 4.007812 "/>
</clipPath>
<clipPath id="clip4">
  <path d="M 79.199219 52 L 106.964844 52 L 106.964844 91.941406 L 79.199219 91.941406 Z M 79.199219 52 "/>
</clipPath>
</defs>
<g id="surface1">
<g clip-path="url(#clip1)" clip-rule="nonzero">
<path style=" stroke:none;fill-rule:nonzero;fill:rgb(6.27451%,5.882353%,5.098039%);fill-opacity:1;" d="M 13.449219 17.046875 L 18.363281 65.488281 C 31.042969 64.777344 43.785156 66.847656 56.601562 72.011719 L 56.601562 24.410156 C 40.917969 18.582031 26.640625 16.40625 13.449219 17.046875 "/>
</g>
<g clip-path="url(#clip2)" clip-rule="nonzero">
<path style=" stroke:none;fill-rule:nonzero;fill:rgb(6.27451%,5.882353%,5.098039%);fill-opacity:1;" d="M 24.160156 12.914062 C 34.664062 13.589844 45.53125 15.921875 56.601562 19.898438 L 56.601562 17.589844 C 45.960938 9.851562 33.972656 4.65625 23.699219 4.03125 L 24.160156 12.914062 "/>
</g>
<path style=" stroke:none;fill-rule:nonzero;fill:rgb(6.27451%,5.882353%,5.098039%);fill-opacity:1;" d="M 83.207031 51.863281 C 84.878906 50.859375 86.675781 50.410156 88.378906 50.085938 L 89.507812 49.84375 C 89.820312 49.773438 90.148438 49.71875 90.503906 49.660156 C 89.851562 47.199219 88.578125 44.824219 86.734375 42.703125 C 84.992188 40.695312 82.648438 39.335938 80.179688 37.894531 C 78.90625 37.15625 77.609375 36.410156 76.351562 35.53125 C 71.75 32.363281 68.894531 27.511719 68.183594 21.730469 C 65.566406 22.507812 62.910156 23.410156 60.210938 24.414062 L 60.210938 72.019531 C 65.925781 69.710938 71.625 68.03125 77.308594 66.941406 C 77.335938 66.757812 77.351562 66.585938 77.378906 66.402344 C 77.464844 65.726562 77.535156 65.03125 77.621094 64.324219 C 77.90625 61.582031 78.25 58.46875 79.691406 55.644531 C 80.492188 54.085938 81.707031 52.769531 83.207031 51.863281 "/>
<path style=" stroke:none;fill-rule:nonzero;fill:rgb(6.27451%,5.882353%,5.098039%);fill-opacity:1;" d="M 78.792969 32.050781 C 79.921875 32.832031 81.09375 33.511719 82.335938 34.242188 C 85.007812 35.785156 87.78125 37.398438 89.992188 39.945312 C 92.507812 42.84375 94.179688 46.152344 94.890625 49.585938 C 95.492188 49.660156 96.09375 49.757812 96.660156 49.859375 L 97.046875 49.929688 C 97.847656 50.070312 98.863281 50.265625 99.964844 50.59375 L 103.363281 17.046875 C 93.664062 16.582031 83.367188 17.628906 72.351562 20.539062 C 72.808594 25.417969 75.050781 29.480469 78.792969 32.050781 "/>
<g clip-path="url(#clip3)" clip-rule="nonzero">
<path style=" stroke:none;fill-rule:nonzero;fill:rgb(6.27451%,5.882353%,5.098039%);fill-opacity:1;" d="M 93.117188 4.03125 C 82.84375 4.65625 70.851562 9.851562 60.214844 17.589844 L 60.214844 19.898438 C 71.28125 15.921875 82.152344 13.589844 92.652344 12.914062 L 93.117188 4.03125 "/>
</g>
<g clip-path="url(#clip4)" clip-rule="nonzero">
<path style=" stroke:none;fill-rule:nonzero;fill:rgb(6.27451%,5.882353%,5.098039%);fill-opacity:1;" d="M 96.160156 67.890625 C 96.113281 69.375 94.910156 70.289062 92.964844 70.386719 C 91.335938 70.472656 90.105469 69.722656 90.070312 68.289062 C 90.035156 66.84375 90.03125 65.390625 90.066406 63.945312 C 90.089844 62.523438 90.160156 61.101562 90.25 59.683594 C 90.34375 58.214844 91.882812 57.3125 93.539062 57.457031 C 95.207031 57.597656 96.066406 58.410156 96.152344 59.96875 C 96.160156 60.03125 96.160156 60.101562 96.160156 60.171875 C 96.183594 61.414062 96.167969 62.65625 96.167969 63.902344 C 96.167969 65.234375 96.199219 66.558594 96.160156 67.890625 Z M 106.011719 66.78125 C 105.566406 63.503906 105.515625 59.929688 103.976562 56.921875 C 102.496094 54.042969 99.421875 53.242188 96.449219 52.691406 C 96.351562 52.667969 96.253906 52.65625 96.152344 52.632812 C 94.734375 52.382812 93.269531 52.179688 91.835938 52.328125 C 91.242188 52.390625 90.65625 52.5 90.066406 52.621094 C 89.691406 52.695312 89.320312 52.773438 88.945312 52.851562 C 87.480469 53.144531 85.980469 53.515625 84.695312 54.285156 C 83.640625 54.925781 82.800781 55.832031 82.246094 56.921875 C 80.703125 59.929688 80.652344 63.503906 80.203125 66.78125 C 79.675781 70.609375 79.3125 74.460938 79.3125 78.324219 C 79.3125 86.003906 85.46875 91.558594 93.109375 91.996094 C 100.75 91.558594 106.90625 86.003906 106.90625 78.324219 C 106.90625 74.460938 106.542969 70.609375 106.011719 66.78125 "/>
</g>
<path style=" stroke:none;fill-rule:nonzero;fill:rgb(0%,0%,0%);fill-opacity:1;" d="M 21.359375 109.375 C 21.703125 109.375 21.988281 109.492188 22.21875 109.71875 C 22.457031 109.949219 22.578125 110.214844 22.578125 110.515625 C 22.578125 110.851562 22.457031 111.125 22.21875 111.34375 C 21.988281 111.554688 21.703125 111.65625 21.359375 111.65625 L 14.703125 111.65625 C 14.359375 111.65625 14.066406 111.542969 13.828125 111.3125 C 13.597656 111.074219 13.484375 110.78125 13.484375 110.4375 L 13.484375 98.953125 C 13.484375 98.609375 13.597656 98.324219 13.828125 98.09375 C 14.066406 97.867188 14.359375 97.75 14.703125 97.75 L 21.359375 97.75 C 21.703125 97.75 21.988281 97.859375 22.21875 98.078125 C 22.457031 98.296875 22.578125 98.578125 22.578125 98.921875 C 22.578125 99.246094 22.460938 99.511719 22.234375 99.71875 C 22.003906 99.929688 21.710938 100.03125 21.359375 100.03125 L 15.96875 100.03125 L 15.96875 103.40625 L 20.46875 103.40625 C 20.8125 103.40625 21.097656 103.515625 21.328125 103.734375 C 21.554688 103.953125 21.671875 104.234375 21.671875 104.578125 C 21.671875 104.914062 21.554688 105.183594 21.328125 105.390625 C 21.109375 105.589844 20.820312 105.6875 20.46875 105.6875 L 15.96875 105.6875 L 15.96875 109.375 Z M 21.359375 109.375 "/>
<path style=" stroke:none;fill-rule:nonzero;fill:rgb(0%,0%,0%);fill-opacity:1;" d="M 33.503906 109.5625 C 33.753906 109.835938 33.878906 110.136719 33.878906 110.46875 C 33.878906 110.792969 33.746094 111.070312 33.488281 111.296875 C 33.226562 111.527344 32.949219 111.640625 32.660156 111.640625 C 32.316406 111.640625 32.023438 111.507812 31.785156 111.234375 L 28.207031 107.46875 L 27.238281 108.359375 L 27.238281 110.4375 C 27.238281 110.78125 27.121094 111.074219 26.894531 111.3125 C 26.675781 111.542969 26.394531 111.65625 26.050781 111.65625 C 25.707031 111.65625 25.417969 111.542969 25.191406 111.3125 C 24.960938 111.074219 24.847656 110.78125 24.847656 110.4375 L 24.847656 98.15625 C 24.847656 97.8125 24.960938 97.527344 25.191406 97.296875 C 25.417969 97.070312 25.707031 96.953125 26.050781 96.953125 C 26.394531 96.953125 26.675781 97.070312 26.894531 97.296875 C 27.121094 97.527344 27.238281 97.8125 27.238281 98.15625 L 27.238281 105.515625 L 31.488281 101.40625 C 31.738281 101.148438 32.027344 101.015625 32.363281 101.015625 C 32.652344 101.015625 32.914062 101.140625 33.144531 101.390625 C 33.382812 101.640625 33.503906 101.890625 33.503906 102.140625 C 33.503906 102.453125 33.339844 102.75 33.019531 103.03125 L 30.019531 105.796875 Z M 33.503906 109.5625 "/>
<path style=" stroke:none;fill-rule:nonzero;fill:rgb(0%,0%,0%);fill-opacity:1;" d="M 41.089844 109.40625 C 41.277344 109.40625 41.441406 109.5 41.589844 109.6875 C 41.746094 109.867188 41.824219 110.101562 41.824219 110.390625 C 41.824219 110.746094 41.625 111.046875 41.230469 111.296875 C 40.84375 111.539062 40.40625 111.65625 39.917969 111.65625 C 39.09375 111.65625 38.402344 111.484375 37.839844 111.140625 C 37.277344 110.789062 36.996094 110.039062 36.996094 108.890625 L 36.996094 103.40625 L 36.074219 103.40625 C 35.761719 103.40625 35.496094 103.304688 35.277344 103.09375 C 35.066406 102.875 34.964844 102.609375 34.964844 102.296875 C 34.964844 101.996094 35.066406 101.742188 35.277344 101.53125 C 35.496094 101.324219 35.761719 101.21875 36.074219 101.21875 L 36.996094 101.21875 L 36.996094 99.953125 C 36.996094 99.609375 37.109375 99.324219 37.339844 99.09375 C 37.566406 98.855469 37.855469 98.734375 38.199219 98.734375 C 38.53125 98.734375 38.808594 98.855469 39.027344 99.09375 C 39.253906 99.324219 39.371094 99.609375 39.371094 99.953125 L 39.371094 101.21875 L 40.792969 101.21875 C 41.105469 101.21875 41.363281 101.328125 41.574219 101.546875 C 41.792969 101.757812 41.902344 102.015625 41.902344 102.328125 C 41.902344 102.640625 41.792969 102.902344 41.574219 103.109375 C 41.363281 103.308594 41.105469 103.40625 40.792969 103.40625 L 39.371094 103.40625 L 39.371094 108.796875 C 39.371094 109.078125 39.441406 109.28125 39.589844 109.40625 C 39.734375 109.53125 39.9375 109.59375 40.199219 109.59375 C 40.300781 109.59375 40.449219 109.570312 40.636719 109.515625 C 40.792969 109.445312 40.941406 109.40625 41.089844 109.40625 Z M 41.089844 109.40625 "/>
<path style=" stroke:none;fill-rule:nonzero;fill:rgb(0%,0%,0%);fill-opacity:1;" d="M 51.984375 101.015625 C 52.324219 101.015625 52.605469 101.136719 52.828125 101.375 C 53.054688 101.605469 53.167969 101.890625 53.167969 102.234375 L 53.167969 107.28125 C 53.167969 108.71875 52.773438 109.84375 51.984375 110.65625 C 51.199219 111.460938 50.078125 111.859375 48.621094 111.859375 C 47.160156 111.859375 46.042969 111.460938 45.261719 110.65625 C 44.484375 109.84375 44.089844 108.71875 44.089844 107.28125 L 44.089844 102.234375 C 44.089844 101.890625 44.203125 101.605469 44.417969 101.375 C 44.644531 101.136719 44.933594 101.015625 45.28125 101.015625 C 45.621094 101.015625 45.902344 101.136719 46.125 101.375 C 46.351562 101.605469 46.464844 101.890625 46.464844 102.234375 L 46.464844 107.28125 C 46.464844 108.09375 46.640625 108.699219 46.996094 109.09375 C 47.359375 109.480469 47.90625 109.671875 48.621094 109.671875 C 49.351562 109.671875 49.890625 109.480469 50.25 109.09375 C 50.597656 108.699219 50.777344 108.09375 50.777344 107.28125 L 50.777344 102.234375 C 50.777344 101.890625 50.890625 101.605469 51.121094 101.375 C 51.347656 101.136719 51.636719 101.015625 51.984375 101.015625 Z M 51.984375 101.015625 "/>
<path style=" stroke:none;fill-rule:nonzero;fill:rgb(0%,0%,0%);fill-opacity:1;" d="M 55.128906 110 C 55.011719 109.84375 54.957031 109.648438 54.957031 109.40625 C 54.957031 109.0625 55.128906 108.773438 55.472656 108.53125 C 55.660156 108.417969 55.851562 108.359375 56.050781 108.359375 C 56.320312 108.359375 56.585938 108.484375 56.847656 108.734375 C 57.242188 109.140625 57.652344 109.449219 58.082031 109.65625 C 58.507812 109.855469 59.027344 109.953125 59.644531 109.953125 C 60.675781 109.914062 61.191406 109.523438 61.191406 108.78125 C 61.191406 108.398438 61.011719 108.105469 60.660156 107.90625 C 60.316406 107.710938 59.773438 107.507812 59.035156 107.296875 C 58.261719 107.089844 57.632812 106.882812 57.144531 106.671875 C 56.664062 106.453125 56.246094 106.132812 55.894531 105.703125 C 55.550781 105.277344 55.378906 104.699219 55.378906 103.96875 C 55.378906 103.335938 55.554688 102.78125 55.910156 102.3125 C 56.273438 101.835938 56.753906 101.46875 57.347656 101.21875 C 57.941406 100.960938 58.566406 100.828125 59.222656 100.828125 C 59.898438 100.828125 60.574219 100.953125 61.253906 101.203125 C 61.929688 101.453125 62.460938 101.824219 62.847656 102.3125 C 63.011719 102.53125 63.097656 102.773438 63.097656 103.03125 C 63.097656 103.335938 62.972656 103.585938 62.722656 103.78125 C 62.535156 103.929688 62.320312 104 62.082031 104 C 61.789062 104 61.554688 103.90625 61.378906 103.71875 C 61.136719 103.429688 60.824219 103.199219 60.441406 103.03125 C 60.066406 102.855469 59.636719 102.765625 59.160156 102.765625 C 58.160156 102.765625 57.660156 103.132812 57.660156 103.859375 C 57.660156 104.152344 57.746094 104.390625 57.925781 104.578125 C 58.113281 104.757812 58.347656 104.898438 58.628906 105 C 58.917969 105.09375 59.324219 105.214844 59.847656 105.359375 C 60.554688 105.558594 61.148438 105.765625 61.628906 105.984375 C 62.105469 106.195312 62.511719 106.515625 62.847656 106.953125 C 63.179688 107.390625 63.347656 107.964844 63.347656 108.671875 C 63.347656 109.328125 63.152344 109.898438 62.769531 110.375 C 62.382812 110.855469 61.886719 111.226562 61.285156 111.484375 C 60.679688 111.734375 60.058594 111.859375 59.425781 111.859375 C 58.550781 111.859375 57.730469 111.710938 56.972656 111.421875 C 56.222656 111.132812 55.605469 110.65625 55.128906 110 Z M 55.128906 110 "/>
<path style=" stroke:none;fill-rule:nonzero;fill:rgb(0%,0%,0%);fill-opacity:1;" d="M 70.90625 100.828125 C 72.21875 100.828125 73.125 101.230469 73.625 102.03125 C 74.132812 102.835938 74.390625 103.945312 74.390625 105.359375 L 74.390625 110.4375 C 74.390625 110.78125 74.273438 111.074219 74.046875 111.3125 C 73.820312 111.542969 73.53125 111.65625 73.1875 111.65625 C 72.84375 111.65625 72.558594 111.542969 72.328125 111.3125 C 72.109375 111.074219 72 110.78125 72 110.4375 L 72 105.359375 C 72 104.632812 71.855469 104.058594 71.5625 103.640625 C 71.28125 103.226562 70.785156 103.015625 70.078125 103.015625 C 69.328125 103.015625 68.742188 103.242188 68.328125 103.6875 C 67.914062 104.125 67.703125 104.683594 67.703125 105.359375 L 67.703125 110.4375 C 67.703125 110.78125 67.589844 111.074219 67.359375 111.3125 C 67.140625 111.542969 66.859375 111.65625 66.515625 111.65625 C 66.171875 111.65625 65.882812 111.542969 65.65625 111.3125 C 65.4375 111.074219 65.328125 110.78125 65.328125 110.4375 L 65.328125 98.15625 C 65.328125 97.8125 65.4375 97.527344 65.65625 97.296875 C 65.882812 97.070312 66.171875 96.953125 66.515625 96.953125 C 66.859375 96.953125 67.140625 97.070312 67.359375 97.296875 C 67.589844 97.527344 67.703125 97.8125 67.703125 98.15625 L 67.703125 102.546875 C 68.066406 102.078125 68.523438 101.679688 69.0625 101.34375 C 69.613281 101 70.226562 100.828125 70.90625 100.828125 Z M 70.90625 100.828125 "/>
<path style=" stroke:none;fill-rule:nonzero;fill:rgb(0%,0%,0%);fill-opacity:1;" d="M 79.207031 110.4375 C 79.207031 110.78125 79.089844 111.074219 78.863281 111.3125 C 78.644531 111.542969 78.363281 111.65625 78.019531 111.65625 C 77.675781 111.65625 77.386719 111.542969 77.160156 111.3125 C 76.941406 111.074219 76.832031 110.78125 76.832031 110.4375 L 76.832031 102.234375 C 76.832031 101.890625 76.941406 101.605469 77.160156 101.375 C 77.386719 101.136719 77.675781 101.015625 78.019531 101.015625 C 78.363281 101.015625 78.644531 101.136719 78.863281 101.375 C 79.089844 101.605469 79.207031 101.890625 79.207031 102.234375 Z M 78.003906 99.734375 C 77.554688 99.734375 77.238281 99.664062 77.050781 99.515625 C 76.863281 99.371094 76.769531 99.109375 76.769531 98.734375 L 76.769531 98.359375 C 76.769531 97.984375 76.867188 97.726562 77.066406 97.578125 C 77.261719 97.433594 77.582031 97.359375 78.019531 97.359375 C 78.488281 97.359375 78.808594 97.433594 78.988281 97.578125 C 79.175781 97.726562 79.269531 97.984375 79.269531 98.359375 L 79.269531 98.734375 C 79.269531 99.121094 79.175781 99.386719 78.988281 99.53125 C 78.800781 99.667969 78.472656 99.734375 78.003906 99.734375 Z M 78.003906 99.734375 "/>
<path style=" stroke:none;fill-rule:nonzero;fill:rgb(0%,0%,0%);fill-opacity:1;" d="M 90.503906 109.5625 C 90.753906 109.835938 90.878906 110.136719 90.878906 110.46875 C 90.878906 110.792969 90.746094 111.070312 90.488281 111.296875 C 90.226562 111.527344 89.949219 111.640625 89.660156 111.640625 C 89.316406 111.640625 89.023438 111.507812 88.785156 111.234375 L 85.207031 107.46875 L 84.238281 108.359375 L 84.238281 110.4375 C 84.238281 110.78125 84.121094 111.074219 83.894531 111.3125 C 83.675781 111.542969 83.394531 111.65625 83.050781 111.65625 C 82.707031 111.65625 82.417969 111.542969 82.191406 111.3125 C 81.960938 111.074219 81.847656 110.78125 81.847656 110.4375 L 81.847656 98.15625 C 81.847656 97.8125 81.960938 97.527344 82.191406 97.296875 C 82.417969 97.070312 82.707031 96.953125 83.050781 96.953125 C 83.394531 96.953125 83.675781 97.070312 83.894531 97.296875 C 84.121094 97.527344 84.238281 97.8125 84.238281 98.15625 L 84.238281 105.515625 L 88.488281 101.40625 C 88.738281 101.148438 89.027344 101.015625 89.363281 101.015625 C 89.652344 101.015625 89.914062 101.140625 90.144531 101.390625 C 90.382812 101.640625 90.503906 101.890625 90.503906 102.140625 C 90.503906 102.453125 90.339844 102.75 90.019531 103.03125 L 87.019531 105.796875 Z M 90.503906 109.5625 "/>
<path style=" stroke:none;fill-rule:nonzero;fill:rgb(0%,0%,0%);fill-opacity:1;" d="M 98.542969 100.828125 C 99.855469 100.828125 100.761719 101.230469 101.261719 102.03125 C 101.769531 102.835938 102.027344 103.945312 102.027344 105.359375 L 102.027344 110.4375 C 102.027344 110.78125 101.910156 111.074219 101.683594 111.3125 C 101.453125 111.542969 101.167969 111.65625 100.824219 111.65625 C 100.480469 111.65625 100.191406 111.542969 99.964844 111.3125 C 99.746094 111.074219 99.636719 110.78125 99.636719 110.4375 L 99.636719 105.359375 C 99.636719 104.632812 99.488281 104.058594 99.199219 103.640625 C 98.917969 103.226562 98.421875 103.015625 97.714844 103.015625 C 96.964844 103.015625 96.378906 103.242188 95.964844 103.6875 C 95.546875 104.125 95.339844 104.683594 95.339844 105.359375 L 95.339844 110.4375 C 95.339844 110.78125 95.222656 111.074219 94.996094 111.3125 C 94.777344 111.542969 94.496094 111.65625 94.152344 111.65625 C 93.808594 111.65625 93.519531 111.542969 93.292969 111.3125 C 93.074219 111.074219 92.964844 110.78125 92.964844 110.4375 L 92.964844 98.15625 C 92.964844 97.8125 93.074219 97.527344 93.292969 97.296875 C 93.519531 97.070312 93.808594 96.953125 94.152344 96.953125 C 94.496094 96.953125 94.777344 97.070312 94.996094 97.296875 C 95.222656 97.527344 95.339844 97.8125 95.339844 98.15625 L 95.339844 102.546875 C 95.703125 102.078125 96.15625 101.679688 96.699219 101.34375 C 97.25 101 97.863281 100.828125 98.542969 100.828125 Z M 98.542969 100.828125 "/>
<path style=" stroke:none;fill-rule:nonzero;fill:rgb(0%,0%,0%);fill-opacity:1;" d="M 106.839844 110.4375 C 106.839844 110.78125 106.726562 111.074219 106.5 111.3125 C 106.277344 111.542969 105.996094 111.65625 105.65625 111.65625 C 105.3125 111.65625 105.019531 111.542969 104.796875 111.3125 C 104.578125 111.074219 104.46875 110.78125 104.46875 110.4375 L 104.46875 102.234375 C 104.46875 101.890625 104.578125 101.605469 104.796875 101.375 C 105.019531 101.136719 105.3125 101.015625 105.65625 101.015625 C 105.996094 101.015625 106.277344 101.136719 106.5 101.375 C 106.726562 101.605469 106.839844 101.890625 106.839844 102.234375 Z M 105.640625 99.734375 C 105.1875 99.734375 104.871094 99.664062 104.683594 99.515625 C 104.496094 99.371094 104.402344 99.109375 104.402344 98.734375 L 104.402344 98.359375 C 104.402344 97.984375 104.5 97.726562 104.703125 97.578125 C 104.898438 97.433594 105.21875 97.359375 105.65625 97.359375 C 106.125 97.359375 106.445312 97.433594 106.625 97.578125 C 106.8125 97.726562 106.90625 97.984375 106.90625 98.359375 L 106.90625 98.734375 C 106.90625 99.121094 106.8125 99.386719 106.625 99.53125 C 106.4375 99.667969 106.109375 99.734375 105.640625 99.734375 Z M 105.640625 99.734375 "/>
</g>
</svg>
