<svg xmlns="http://www.w3.org/2000/svg" xmlns:xlink="http://www.w3.org/1999/xlink" width="160" zoomAndPan="magnify" viewBox="0 0 120 119.999999" height="160" preserveAspectRatio="xMidYMid meet" version="1.0"><defs><g/><clipPath id="6ad0886b72"><path d="M 13.464844 16 L 57 16 L 57 73 L 13.464844 73 Z M 13.464844 16 " clip-rule="nonzero"/></clipPath><clipPath id="12a484c3cb"><path d="M 23 4.007812 L 57 4.007812 L 57 20 L 23 20 Z M 23 4.007812 " clip-rule="nonzero"/></clipPath><clipPath id="624218eafe"><path d="M 60 4.007812 L 94 4.007812 L 94 20 L 60 20 Z M 60 4.007812 " clip-rule="nonzero"/></clipPath><clipPath id="d754974fab"><path d="M 79 52 L 106.964844 52 L 106.964844 91.941406 L 79 91.941406 Z M 79 52 " clip-rule="nonzero"/></clipPath></defs><g clip-path="url(#6ad0886b72)"><path fill="#100f0d" d="M 13.449219 17.046875 L 18.363281 65.488281 C 31.042969 64.777344 43.785156 66.847656 56.601562 72.011719 L 56.601562 24.410156 C 40.917969 18.582031 26.640625 16.40625 13.449219 17.046875 " fill-opacity="1" fill-rule="nonzero"/></g><g clip-path="url(#12a484c3cb)"><path fill="#100f0d" d="M 24.160156 12.914062 C 34.664062 13.589844 45.53125 15.921875 56.601562 19.898438 L 56.601562 17.589844 C 45.960938 9.851562 33.972656 4.65625 23.699219 4.03125 L 24.160156 12.914062 " fill-opacity="1" fill-rule="nonzero"/></g><path fill="#100f0d" d="M 83.207031 51.863281 C 84.878906 50.859375 86.675781 50.410156 88.378906 50.085938 L 89.507812 49.84375 C 89.820312 49.773438 90.148438 49.71875 90.503906 49.660156 C 89.851562 47.199219 88.578125 44.824219 86.734375 42.703125 C 84.992188 40.695312 82.648438 39.335938 80.179688 37.894531 C 78.90625 37.15625 77.609375 36.410156 76.351562 35.53125 C 71.75 32.363281 68.894531 27.511719 68.183594 21.730469 C 65.566406 22.507812 62.910156 23.410156 60.210938 24.414062 L 60.210938 72.019531 C 65.925781 69.710938 71.625 68.03125 77.308594 66.941406 C 77.335938 66.757812 77.351562 66.585938 77.378906 66.402344 C 77.464844 65.726562 77.535156 65.03125 77.621094 64.324219 C 77.90625 61.582031 78.25 58.46875 79.691406 55.644531 C 80.492188 54.085938 81.707031 52.769531 83.207031 51.863281 " fill-opacity="1" fill-rule="nonzero"/><path fill="#100f0d" d="M 78.792969 32.050781 C 79.921875 32.832031 81.09375 33.511719 82.335938 34.242188 C 85.007812 35.785156 87.78125 37.398438 89.992188 39.945312 C 92.507812 42.84375 94.179688 46.152344 94.890625 49.585938 C 95.492188 49.660156 96.09375 49.757812 96.660156 49.859375 L 97.046875 49.929688 C 97.847656 50.070312 98.863281 50.265625 99.964844 50.59375 L 103.363281 17.046875 C 93.664062 16.582031 83.367188 17.628906 72.351562 20.539062 C 72.808594 25.417969 75.050781 29.480469 78.792969 32.050781 " fill-opacity="1" fill-rule="nonzero"/><g clip-path="url(#624218eafe)"><path fill="#100f0d" d="M 93.117188 4.03125 C 82.84375 4.65625 70.851562 9.851562 60.214844 17.589844 L 60.214844 19.898438 C 71.28125 15.921875 82.152344 13.589844 92.652344 12.914062 L 93.117188 4.03125 " fill-opacity="1" fill-rule="nonzero"/></g><g clip-path="url(#d754974fab)"><path fill="#100f0d" d="M 96.160156 67.890625 C 96.113281 69.375 94.910156 70.289062 92.964844 70.386719 C 91.335938 70.472656 90.105469 69.722656 90.070312 68.289062 C 90.035156 66.84375 90.03125 65.390625 90.066406 63.945312 C 90.089844 62.523438 90.160156 61.101562 90.25 59.683594 C 90.34375 58.214844 91.882812 57.3125 93.539062 57.457031 C 95.207031 57.597656 96.066406 58.410156 96.152344 59.96875 C 96.160156 60.03125 96.160156 60.101562 96.160156 60.171875 C 96.183594 61.414062 96.167969 62.65625 96.167969 63.902344 C 96.167969 65.234375 96.199219 66.558594 96.160156 67.890625 Z M 106.011719 66.78125 C 105.566406 63.503906 105.515625 59.929688 103.976562 56.921875 C 102.496094 54.042969 99.421875 53.242188 96.449219 52.691406 C 96.351562 52.667969 96.253906 52.65625 96.152344 52.632812 C 94.734375 52.382812 93.269531 52.179688 91.835938 52.328125 C 91.242188 52.390625 90.65625 52.5 90.066406 52.621094 C 89.691406 52.695312 89.320312 52.773438 88.945312 52.851562 C 87.480469 53.144531 85.980469 53.515625 84.695312 54.285156 C 83.640625 54.925781 82.800781 55.832031 82.246094 56.921875 C 80.703125 59.929688 80.652344 63.503906 80.203125 66.78125 C 79.675781 70.609375 79.3125 74.460938 79.3125 78.324219 C 79.3125 86.003906 85.46875 91.558594 93.109375 91.996094 C 100.75 91.558594 106.90625 86.003906 106.90625 78.324219 C 106.90625 74.460938 106.542969 70.609375 106.011719 66.78125 " fill-opacity="1" fill-rule="nonzero"/></g><g fill="#000000" fill-opacity="1"><g transform="translate(12, 111.656925)"><g><path d="M 9.359375 -2.28125 C 9.703125 -2.28125 9.988281 -2.164062 10.21875 -1.9375 C 10.457031 -1.707031 10.578125 -1.441406 10.578125 -1.140625 C 10.578125 -0.804688 10.457031 -0.53125 10.21875 -0.3125 C 9.988281 -0.101562 9.703125 0 9.359375 0 L 2.703125 0 C 2.359375 0 2.066406 -0.113281 1.828125 -0.34375 C 1.597656 -0.582031 1.484375 -0.875 1.484375 -1.21875 L 1.484375 -12.703125 C 1.484375 -13.046875 1.597656 -13.332031 1.828125 -13.5625 C 2.066406 -13.789062 2.359375 -13.90625 2.703125 -13.90625 L 9.359375 -13.90625 C 9.703125 -13.90625 9.988281 -13.796875 10.21875 -13.578125 C 10.457031 -13.359375 10.578125 -13.078125 10.578125 -12.734375 C 10.578125 -12.410156 10.460938 -12.144531 10.234375 -11.9375 C 10.003906 -11.726562 9.710938 -11.625 9.359375 -11.625 L 3.96875 -11.625 L 3.96875 -8.25 L 8.46875 -8.25 C 8.8125 -8.25 9.097656 -8.140625 9.328125 -7.921875 C 9.554688 -7.703125 9.671875 -7.421875 9.671875 -7.078125 C 9.671875 -6.742188 9.554688 -6.472656 9.328125 -6.265625 C 9.109375 -6.066406 8.820312 -5.96875 8.46875 -5.96875 L 3.96875 -5.96875 L 3.96875 -2.28125 Z M 9.359375 -2.28125 "/></g></g></g><g fill="#000000" fill-opacity="1"><g transform="translate(23.364143, 111.656925)"><g><path d="M 10.140625 -2.09375 C 10.390625 -1.820312 10.515625 -1.519531 10.515625 -1.1875 C 10.515625 -0.863281 10.382812 -0.585938 10.125 -0.359375 C 9.863281 -0.128906 9.585938 -0.015625 9.296875 -0.015625 C 8.953125 -0.015625 8.660156 -0.148438 8.421875 -0.421875 L 4.84375 -4.1875 L 3.875 -3.296875 L 3.875 -1.21875 C 3.875 -0.875 3.757812 -0.582031 3.53125 -0.34375 C 3.3125 -0.113281 3.03125 0 2.6875 0 C 2.34375 0 2.054688 -0.113281 1.828125 -0.34375 C 1.597656 -0.582031 1.484375 -0.875 1.484375 -1.21875 L 1.484375 -13.5 C 1.484375 -13.84375 1.597656 -14.128906 1.828125 -14.359375 C 2.054688 -14.585938 2.34375 -14.703125 2.6875 -14.703125 C 3.03125 -14.703125 3.3125 -14.585938 3.53125 -14.359375 C 3.757812 -14.128906 3.875 -13.84375 3.875 -13.5 L 3.875 -6.140625 L 8.125 -10.25 C 8.375 -10.507812 8.664062 -10.640625 9 -10.640625 C 9.289062 -10.640625 9.550781 -10.515625 9.78125 -10.265625 C 10.019531 -10.015625 10.140625 -9.765625 10.140625 -9.515625 C 10.140625 -9.203125 9.976562 -8.90625 9.65625 -8.625 L 6.65625 -5.859375 Z M 10.140625 -2.09375 "/></g></g></g><g fill="#000000" fill-opacity="1"><g transform="translate(34.668683, 111.656925)"><g><path d="M 6.421875 -2.25 C 6.609375 -2.25 6.773438 -2.15625 6.921875 -1.96875 C 7.078125 -1.789062 7.15625 -1.554688 7.15625 -1.265625 C 7.15625 -0.910156 6.957031 -0.609375 6.5625 -0.359375 C 6.175781 -0.117188 5.738281 0 5.25 0 C 4.425781 0 3.734375 -0.171875 3.171875 -0.515625 C 2.609375 -0.867188 2.328125 -1.617188 2.328125 -2.765625 L 2.328125 -8.25 L 1.40625 -8.25 C 1.09375 -8.25 0.828125 -8.351562 0.609375 -8.5625 C 0.398438 -8.78125 0.296875 -9.046875 0.296875 -9.359375 C 0.296875 -9.660156 0.398438 -9.914062 0.609375 -10.125 C 0.828125 -10.332031 1.09375 -10.4375 1.40625 -10.4375 L 2.328125 -10.4375 L 2.328125 -11.703125 C 2.328125 -12.046875 2.441406 -12.332031 2.671875 -12.5625 C 2.898438 -12.800781 3.1875 -12.921875 3.53125 -12.921875 C 3.863281 -12.921875 4.140625 -12.800781 4.359375 -12.5625 C 4.585938 -12.332031 4.703125 -12.046875 4.703125 -11.703125 L 4.703125 -10.4375 L 6.125 -10.4375 C 6.4375 -10.4375 6.695312 -10.328125 6.90625 -10.109375 C 7.125 -9.898438 7.234375 -9.640625 7.234375 -9.328125 C 7.234375 -9.015625 7.125 -8.753906 6.90625 -8.546875 C 6.695312 -8.347656 6.4375 -8.25 6.125 -8.25 L 4.703125 -8.25 L 4.703125 -2.859375 C 4.703125 -2.578125 4.773438 -2.375 4.921875 -2.25 C 5.066406 -2.125 5.269531 -2.0625 5.53125 -2.0625 C 5.632812 -2.0625 5.78125 -2.085938 5.96875 -2.140625 C 6.125 -2.210938 6.273438 -2.25 6.421875 -2.25 Z M 6.421875 -2.25 "/></g></g></g><g fill="#000000" fill-opacity="1"><g transform="translate(42.794438, 111.656925)"><g><path d="M 9.1875 -10.640625 C 9.53125 -10.640625 9.8125 -10.519531 10.03125 -10.28125 C 10.257812 -10.050781 10.375 -9.765625 10.375 -9.421875 L 10.375 -4.375 C 10.375 -2.9375 9.976562 -1.8125 9.1875 -1 C 8.40625 -0.195312 7.285156 0.203125 5.828125 0.203125 C 4.367188 0.203125 3.25 -0.195312 2.46875 -1 C 1.6875 -1.8125 1.296875 -2.9375 1.296875 -4.375 L 1.296875 -9.421875 C 1.296875 -9.765625 1.40625 -10.050781 1.625 -10.28125 C 1.851562 -10.519531 2.140625 -10.640625 2.484375 -10.640625 C 2.828125 -10.640625 3.109375 -10.519531 3.328125 -10.28125 C 3.554688 -10.050781 3.671875 -9.765625 3.671875 -9.421875 L 3.671875 -4.375 C 3.671875 -3.5625 3.847656 -2.957031 4.203125 -2.5625 C 4.566406 -2.175781 5.109375 -1.984375 5.828125 -1.984375 C 6.554688 -1.984375 7.097656 -2.175781 7.453125 -2.5625 C 7.804688 -2.957031 7.984375 -3.5625 7.984375 -4.375 L 7.984375 -9.421875 C 7.984375 -9.765625 8.097656 -10.050781 8.328125 -10.28125 C 8.554688 -10.519531 8.84375 -10.640625 9.1875 -10.640625 Z M 9.1875 -10.640625 "/></g></g></g><g fill="#000000" fill-opacity="1"><g transform="translate(54.456587, 111.656925)"><g><path d="M 0.671875 -1.65625 C 0.554688 -1.8125 0.5 -2.007812 0.5 -2.25 C 0.5 -2.59375 0.671875 -2.882812 1.015625 -3.125 C 1.203125 -3.238281 1.394531 -3.296875 1.59375 -3.296875 C 1.863281 -3.296875 2.128906 -3.171875 2.390625 -2.921875 C 2.785156 -2.515625 3.195312 -2.207031 3.625 -2 C 4.050781 -1.800781 4.570312 -1.703125 5.1875 -1.703125 C 6.21875 -1.742188 6.734375 -2.132812 6.734375 -2.875 C 6.734375 -3.257812 6.554688 -3.550781 6.203125 -3.75 C 5.859375 -3.945312 5.316406 -4.148438 4.578125 -4.359375 C 3.804688 -4.566406 3.175781 -4.773438 2.6875 -4.984375 C 2.207031 -5.203125 1.789062 -5.523438 1.4375 -5.953125 C 1.09375 -6.378906 0.921875 -6.957031 0.921875 -7.6875 C 0.921875 -8.320312 1.097656 -8.875 1.453125 -9.34375 C 1.816406 -9.820312 2.296875 -10.1875 2.890625 -10.4375 C 3.484375 -10.695312 4.109375 -10.828125 4.765625 -10.828125 C 5.441406 -10.828125 6.117188 -10.703125 6.796875 -10.453125 C 7.472656 -10.203125 8.003906 -9.832031 8.390625 -9.34375 C 8.554688 -9.125 8.640625 -8.882812 8.640625 -8.625 C 8.640625 -8.320312 8.515625 -8.070312 8.265625 -7.875 C 8.078125 -7.726562 7.863281 -7.65625 7.625 -7.65625 C 7.332031 -7.65625 7.097656 -7.75 6.921875 -7.9375 C 6.679688 -8.226562 6.367188 -8.457031 5.984375 -8.625 C 5.609375 -8.800781 5.179688 -8.890625 4.703125 -8.890625 C 3.703125 -8.890625 3.203125 -8.523438 3.203125 -7.796875 C 3.203125 -7.503906 3.289062 -7.265625 3.46875 -7.078125 C 3.65625 -6.898438 3.890625 -6.757812 4.171875 -6.65625 C 4.460938 -6.5625 4.867188 -6.441406 5.390625 -6.296875 C 6.097656 -6.097656 6.691406 -5.890625 7.171875 -5.671875 C 7.648438 -5.460938 8.054688 -5.140625 8.390625 -4.703125 C 8.722656 -4.265625 8.890625 -3.691406 8.890625 -2.984375 C 8.890625 -2.328125 8.695312 -1.757812 8.3125 -1.28125 C 7.925781 -0.800781 7.429688 -0.429688 6.828125 -0.171875 C 6.222656 0.078125 5.601562 0.203125 4.96875 0.203125 C 4.09375 0.203125 3.273438 0.0546875 2.515625 -0.234375 C 1.765625 -0.523438 1.148438 -1 0.671875 -1.65625 Z M 0.671875 -1.65625 "/></g></g></g><g fill="#000000" fill-opacity="1"><g transform="translate(64.032667, 111.656925)"><g><path d="M 6.875 -10.828125 C 8.1875 -10.828125 9.09375 -10.425781 9.59375 -9.625 C 10.101562 -8.820312 10.359375 -7.710938 10.359375 -6.296875 L 10.359375 -1.21875 C 10.359375 -0.875 10.242188 -0.582031 10.015625 -0.34375 C 9.785156 -0.113281 9.5 0 9.15625 0 C 8.8125 0 8.523438 -0.113281 8.296875 -0.34375 C 8.078125 -0.582031 7.96875 -0.875 7.96875 -1.21875 L 7.96875 -6.296875 C 7.96875 -7.023438 7.820312 -7.597656 7.53125 -8.015625 C 7.25 -8.429688 6.753906 -8.640625 6.046875 -8.640625 C 5.296875 -8.640625 4.710938 -8.414062 4.296875 -7.96875 C 3.878906 -7.53125 3.671875 -6.972656 3.671875 -6.296875 L 3.671875 -1.21875 C 3.671875 -0.875 3.554688 -0.582031 3.328125 -0.34375 C 3.109375 -0.113281 2.828125 0 2.484375 0 C 2.140625 0 1.851562 -0.113281 1.625 -0.34375 C 1.40625 -0.582031 1.296875 -0.875 1.296875 -1.21875 L 1.296875 -13.5 C 1.296875 -13.84375 1.40625 -14.128906 1.625 -14.359375 C 1.851562 -14.585938 2.140625 -14.703125 2.484375 -14.703125 C 2.828125 -14.703125 3.109375 -14.585938 3.328125 -14.359375 C 3.554688 -14.128906 3.671875 -13.84375 3.671875 -13.5 L 3.671875 -9.109375 C 4.035156 -9.578125 4.488281 -9.976562 5.03125 -10.3125 C 5.582031 -10.65625 6.195312 -10.828125 6.875 -10.828125 Z M 6.875 -10.828125 "/></g></g></g><g fill="#000000" fill-opacity="1"><g transform="translate(75.674953, 111.656925)"><g><path d="M 3.53125 -1.21875 C 3.53125 -0.875 3.414062 -0.582031 3.1875 -0.34375 C 2.96875 -0.113281 2.6875 0 2.34375 0 C 2 0 1.710938 -0.113281 1.484375 -0.34375 C 1.265625 -0.582031 1.15625 -0.875 1.15625 -1.21875 L 1.15625 -9.421875 C 1.15625 -9.765625 1.265625 -10.050781 1.484375 -10.28125 C 1.710938 -10.519531 2 -10.640625 2.34375 -10.640625 C 2.6875 -10.640625 2.96875 -10.519531 3.1875 -10.28125 C 3.414062 -10.050781 3.53125 -9.765625 3.53125 -9.421875 Z M 2.328125 -11.921875 C 1.878906 -11.921875 1.5625 -11.992188 1.375 -12.140625 C 1.1875 -12.285156 1.09375 -12.546875 1.09375 -12.921875 L 1.09375 -13.296875 C 1.09375 -13.671875 1.191406 -13.929688 1.390625 -14.078125 C 1.585938 -14.222656 1.90625 -14.296875 2.34375 -14.296875 C 2.8125 -14.296875 3.132812 -14.222656 3.3125 -14.078125 C 3.5 -13.929688 3.59375 -13.671875 3.59375 -13.296875 L 3.59375 -12.921875 C 3.59375 -12.535156 3.5 -12.269531 3.3125 -12.125 C 3.125 -11.988281 2.796875 -11.921875 2.328125 -11.921875 Z M 2.328125 -11.921875 "/></g></g></g><g fill="#000000" fill-opacity="1"><g transform="translate(80.363652, 111.656925)"><g><path d="M 10.140625 -2.09375 C 10.390625 -1.820312 10.515625 -1.519531 10.515625 -1.1875 C 10.515625 -0.863281 10.382812 -0.585938 10.125 -0.359375 C 9.863281 -0.128906 9.585938 -0.015625 9.296875 -0.015625 C 8.953125 -0.015625 8.660156 -0.148438 8.421875 -0.421875 L 4.84375 -4.1875 L 3.875 -3.296875 L 3.875 -1.21875 C 3.875 -0.875 3.757812 -0.582031 3.53125 -0.34375 C 3.3125 -0.113281 3.03125 0 2.6875 0 C 2.34375 0 2.054688 -0.113281 1.828125 -0.34375 C 1.597656 -0.582031 1.484375 -0.875 1.484375 -1.21875 L 1.484375 -13.5 C 1.484375 -13.84375 1.597656 -14.128906 1.828125 -14.359375 C 2.054688 -14.585938 2.34375 -14.703125 2.6875 -14.703125 C 3.03125 -14.703125 3.3125 -14.585938 3.53125 -14.359375 C 3.757812 -14.128906 3.875 -13.84375 3.875 -13.5 L 3.875 -6.140625 L 8.125 -10.25 C 8.375 -10.507812 8.664062 -10.640625 9 -10.640625 C 9.289062 -10.640625 9.550781 -10.515625 9.78125 -10.265625 C 10.019531 -10.015625 10.140625 -9.765625 10.140625 -9.515625 C 10.140625 -9.203125 9.976562 -8.90625 9.65625 -8.625 L 6.65625 -5.859375 Z M 10.140625 -2.09375 "/></g></g></g><g fill="#000000" fill-opacity="1"><g transform="translate(91.668191, 111.656925)"><g><path d="M 6.875 -10.828125 C 8.1875 -10.828125 9.09375 -10.425781 9.59375 -9.625 C 10.101562 -8.820312 10.359375 -7.710938 10.359375 -6.296875 L 10.359375 -1.21875 C 10.359375 -0.875 10.242188 -0.582031 10.015625 -0.34375 C 9.785156 -0.113281 9.5 0 9.15625 0 C 8.8125 0 8.523438 -0.113281 8.296875 -0.34375 C 8.078125 -0.582031 7.96875 -0.875 7.96875 -1.21875 L 7.96875 -6.296875 C 7.96875 -7.023438 7.820312 -7.597656 7.53125 -8.015625 C 7.25 -8.429688 6.753906 -8.640625 6.046875 -8.640625 C 5.296875 -8.640625 4.710938 -8.414062 4.296875 -7.96875 C 3.878906 -7.53125 3.671875 -6.972656 3.671875 -6.296875 L 3.671875 -1.21875 C 3.671875 -0.875 3.554688 -0.582031 3.328125 -0.34375 C 3.109375 -0.113281 2.828125 0 2.484375 0 C 2.140625 0 1.851562 -0.113281 1.625 -0.34375 C 1.40625 -0.582031 1.296875 -0.875 1.296875 -1.21875 L 1.296875 -13.5 C 1.296875 -13.84375 1.40625 -14.128906 1.625 -14.359375 C 1.851562 -14.585938 2.140625 -14.703125 2.484375 -14.703125 C 2.828125 -14.703125 3.109375 -14.585938 3.328125 -14.359375 C 3.554688 -14.128906 3.671875 -13.84375 3.671875 -13.5 L 3.671875 -9.109375 C 4.035156 -9.578125 4.488281 -9.976562 5.03125 -10.3125 C 5.582031 -10.65625 6.195312 -10.828125 6.875 -10.828125 Z M 6.875 -10.828125 "/></g></g></g><g fill="#000000" fill-opacity="1"><g transform="translate(103.310477, 111.656925)"><g><path d="M 3.53125 -1.21875 C 3.53125 -0.875 3.414062 -0.582031 3.1875 -0.34375 C 2.96875 -0.113281 2.6875 0 2.34375 0 C 2 0 1.710938 -0.113281 1.484375 -0.34375 C 1.265625 -0.582031 1.15625 -0.875 1.15625 -1.21875 L 1.15625 -9.421875 C 1.15625 -9.765625 1.265625 -10.050781 1.484375 -10.28125 C 1.710938 -10.519531 2 -10.640625 2.34375 -10.640625 C 2.6875 -10.640625 2.96875 -10.519531 3.1875 -10.28125 C 3.414062 -10.050781 3.53125 -9.765625 3.53125 -9.421875 Z M 2.328125 -11.921875 C 1.878906 -11.921875 1.5625 -11.992188 1.375 -12.140625 C 1.1875 -12.285156 1.09375 -12.546875 1.09375 -12.921875 L 1.09375 -13.296875 C 1.09375 -13.671875 1.191406 -13.929688 1.390625 -14.078125 C 1.585938 -14.222656 1.90625 -14.296875 2.34375 -14.296875 C 2.8125 -14.296875 3.132812 -14.222656 3.3125 -14.078125 C 3.5 -13.929688 3.59375 -13.671875 3.59375 -13.296875 L 3.59375 -12.921875 C 3.59375 -12.535156 3.5 -12.269531 3.3125 -12.125 C 3.125 -11.988281 2.796875 -11.921875 2.328125 -11.921875 Z M 2.328125 -11.921875 "/></g></g></g></svg>